<mxfile host="app.diagrams.net" agent="Mozilla/5.0 (Windows NT 10.0; Win64; x64) AppleWebKit/537.36 (KHTML, like Gecko) Chrome/128.0.0.0 Safari/537.36" version="24.7.17">
  <diagram name="Page-1" id="dMQTYi7qANPklL-4qzlM">
    <mxGraphModel dx="1395" dy="722" grid="0" gridSize="10" guides="1" tooltips="1" connect="1" arrows="1" fold="1" page="1" pageScale="1" pageWidth="1169" pageHeight="827" math="0" shadow="0">
      <root>
        <mxCell id="0" />
        <mxCell id="1" parent="0" />
        <mxCell id="be-U-O9A6L8kpEZBlKKN-3" value="" style="edgeStyle=orthogonalEdgeStyle;rounded=0;orthogonalLoop=1;jettySize=auto;html=1;" edge="1" parent="1" source="m3juNqGSzyA2AtN5-G-g-2" target="be-U-O9A6L8kpEZBlKKN-2">
          <mxGeometry relative="1" as="geometry" />
        </mxCell>
        <mxCell id="m3juNqGSzyA2AtN5-G-g-2" value="Full stack personal site" style="rounded=0;whiteSpace=wrap;html=1;" parent="1" vertex="1">
          <mxGeometry x="128" y="48" width="187" height="41" as="geometry" />
        </mxCell>
        <mxCell id="be-U-O9A6L8kpEZBlKKN-5" value="" style="edgeStyle=orthogonalEdgeStyle;rounded=0;orthogonalLoop=1;jettySize=auto;html=1;" edge="1" parent="1" source="be-U-O9A6L8kpEZBlKKN-2" target="be-U-O9A6L8kpEZBlKKN-4">
          <mxGeometry relative="1" as="geometry" />
        </mxCell>
        <mxCell id="be-U-O9A6L8kpEZBlKKN-2" value="NextJs" style="ellipse;whiteSpace=wrap;html=1;rounded=0;" vertex="1" parent="1">
          <mxGeometry x="78" y="156" width="80" height="80" as="geometry" />
        </mxCell>
        <mxCell id="be-U-O9A6L8kpEZBlKKN-4" value="Prisma" style="rhombus;whiteSpace=wrap;html=1;rounded=0;" vertex="1" parent="1">
          <mxGeometry x="238" y="156" width="80" height="80" as="geometry" />
        </mxCell>
      </root>
    </mxGraphModel>
  </diagram>
</mxfile>
